<mxfile host="app.diagrams.net" modified="2023-02-06T02:21:52.276Z" agent="5.0 (Windows NT 10.0; Win64; x64) AppleWebKit/537.36 (KHTML, like Gecko) Chrome/109.0.0.0 Safari/537.36" etag="RLOHFfK1PolZjE2oXMXZ" version="20.8.16" type="github">
  <diagram id="C5RBs43oDa-KdzZeNtuy" name="Page-1">
    <mxGraphModel dx="1434" dy="764" grid="1" gridSize="10" guides="1" tooltips="1" connect="1" arrows="1" fold="1" page="1" pageScale="1" pageWidth="827" pageHeight="1169" math="0" shadow="0">
      <root>
        <mxCell id="WIyWlLk6GJQsqaUBKTNV-0" />
        <mxCell id="WIyWlLk6GJQsqaUBKTNV-1" parent="WIyWlLk6GJQsqaUBKTNV-0" />
        <mxCell id="sI2XtZQbdFrjad-43Lmu-18" value="&lt;p style=&quot;margin:0px;margin-top:4px;text-align:center;&quot;&gt;&lt;i&gt;&amp;lt;&amp;lt;Interface&amp;gt;&amp;gt;&lt;/i&gt;&lt;br&gt;&lt;b&gt;BeanFactory&lt;/b&gt;&lt;/p&gt;&lt;hr size=&quot;1&quot;&gt;&lt;p style=&quot;margin:0px;margin-left:4px;&quot;&gt;+ getBean(String beanName): Obj&lt;br&gt;&lt;/p&gt;&lt;p style=&quot;margin:0px;margin-left:4px;&quot;&gt;+ getBean(String beanName, Obj... args): Obj&lt;br&gt;&lt;/p&gt;" style="verticalAlign=top;align=left;overflow=fill;fontSize=12;fontFamily=Helvetica;html=1;strokeColor=#000000;" parent="WIyWlLk6GJQsqaUBKTNV-1" vertex="1">
          <mxGeometry x="485" y="250" width="210" height="80" as="geometry" />
        </mxCell>
        <mxCell id="sI2XtZQbdFrjad-43Lmu-23" value="&lt;p style=&quot;margin:0px;margin-top:4px;text-align:center;&quot;&gt;&lt;i&gt;&amp;lt;&amp;lt;Interface&amp;gt;&amp;gt;&lt;/i&gt;&lt;br&gt;&lt;b&gt;SingletonBeanRegistry&lt;/b&gt;&lt;/p&gt;&lt;hr size=&quot;1&quot;&gt;&lt;p style=&quot;margin:0px;margin-left:4px;&quot;&gt;+ getSingleton(String beanName): Obj&lt;br&gt;&lt;/p&gt;" style="verticalAlign=top;align=left;overflow=fill;fontSize=12;fontFamily=Helvetica;html=1;" parent="WIyWlLk6GJQsqaUBKTNV-1" vertex="1">
          <mxGeometry x="130" y="250" width="210" height="70" as="geometry" />
        </mxCell>
        <mxCell id="sI2XtZQbdFrjad-43Lmu-24" value="&lt;p style=&quot;margin:0px;margin-top:4px;text-align:center;&quot;&gt;&lt;b&gt;DefaultSingletonBeanFactory&lt;/b&gt;&lt;/p&gt;&lt;hr size=&quot;1&quot;&gt;&lt;p style=&quot;margin:0px;margin-left:4px;&quot;&gt;+ SingletonObjects: Map&amp;lt;String, Obj&amp;gt;&lt;/p&gt;&lt;hr size=&quot;1&quot;&gt;&lt;p style=&quot;margin:0px;margin-left:4px;&quot;&gt;+ getSingleton(String beanName): Obj&lt;/p&gt;&lt;p style=&quot;margin:0px;margin-left:4px;&quot;&gt;+ addSingleton(String beanName, Obj obj): void&lt;br&gt;&lt;/p&gt;" style="verticalAlign=top;align=left;overflow=fill;fontSize=12;fontFamily=Helvetica;html=1;" parent="WIyWlLk6GJQsqaUBKTNV-1" vertex="1">
          <mxGeometry x="125" y="393.5" width="220" height="115" as="geometry" />
        </mxCell>
        <mxCell id="sI2XtZQbdFrjad-43Lmu-25" value="" style="endArrow=block;dashed=1;endFill=0;endSize=12;html=1;rounded=0;entryX=0.5;entryY=1;entryDx=0;entryDy=0;exitX=0.5;exitY=0;exitDx=0;exitDy=0;" parent="WIyWlLk6GJQsqaUBKTNV-1" source="sI2XtZQbdFrjad-43Lmu-24" target="sI2XtZQbdFrjad-43Lmu-23" edge="1">
          <mxGeometry width="160" relative="1" as="geometry">
            <mxPoint x="340" y="410" as="sourcePoint" />
            <mxPoint x="500" y="410" as="targetPoint" />
          </mxGeometry>
        </mxCell>
        <mxCell id="sI2XtZQbdFrjad-43Lmu-26" value="" style="endArrow=block;dashed=1;endFill=0;endSize=12;html=1;rounded=0;entryX=0.5;entryY=1;entryDx=0;entryDy=0;exitX=0.581;exitY=0.006;exitDx=0;exitDy=0;exitPerimeter=0;" parent="WIyWlLk6GJQsqaUBKTNV-1" source="sI2XtZQbdFrjad-43Lmu-39" target="sI2XtZQbdFrjad-43Lmu-18" edge="1">
          <mxGeometry width="160" relative="1" as="geometry">
            <mxPoint x="590" y="406" as="sourcePoint" />
            <mxPoint x="710" y="400" as="targetPoint" />
          </mxGeometry>
        </mxCell>
        <mxCell id="sI2XtZQbdFrjad-43Lmu-30" value="Extends" style="endArrow=block;endSize=16;endFill=0;html=1;rounded=0;entryX=0.583;entryY=1;entryDx=0;entryDy=0;entryPerimeter=0;" parent="WIyWlLk6GJQsqaUBKTNV-1" target="sI2XtZQbdFrjad-43Lmu-44" edge="1">
          <mxGeometry width="160" relative="1" as="geometry">
            <mxPoint x="580" y="580" as="sourcePoint" />
            <mxPoint x="587.3" y="500.004" as="targetPoint" />
          </mxGeometry>
        </mxCell>
        <mxCell id="sI2XtZQbdFrjad-43Lmu-31" value="&lt;p style=&quot;margin:0px;margin-top:4px;text-align:center;&quot;&gt;&lt;i&gt;&amp;lt;&amp;lt;Interface&amp;gt;&amp;gt;&lt;/i&gt;&lt;br&gt;&lt;b&gt;BeanDefinitionRegistry&lt;/b&gt;&lt;/p&gt;&lt;hr size=&quot;1&quot;&gt;&lt;p style=&quot;margin:0px;margin-left:4px;&quot;&gt;+ registerBeanDefinition(String beanName,&amp;nbsp;&lt;/p&gt;&lt;p style=&quot;margin:0px;margin-left:4px;&quot;&gt;BeanDefinition bd): void&lt;br&gt;&lt;/p&gt;" style="verticalAlign=top;align=left;overflow=fill;fontSize=12;fontFamily=Helvetica;html=1;" parent="WIyWlLk6GJQsqaUBKTNV-1" vertex="1">
          <mxGeometry x="120" y="780" width="210" height="80" as="geometry" />
        </mxCell>
        <mxCell id="sI2XtZQbdFrjad-43Lmu-32" value="&lt;p style=&quot;margin:0px;margin-top:4px;text-align:center;&quot;&gt;&lt;b&gt;DefaultListableBeanFactory&lt;/b&gt;&lt;/p&gt;&lt;hr size=&quot;1&quot;&gt;&lt;p style=&quot;margin:0px;margin-left:4px;&quot;&gt;+ beanDefinitonMap: Map&amp;lt;String, BeanDefiniton&amp;gt;&lt;/p&gt;&lt;hr size=&quot;1&quot;&gt;&lt;p style=&quot;margin:0px;margin-left:4px;&quot;&gt;&lt;br&gt;&lt;/p&gt;&amp;nbsp;+ getBeanDefinition(String beanName): BeanDefinition&lt;p style=&quot;margin:0px;margin-left:4px;&quot;&gt;+ registerBeanDefinition(String beanName, BeanDefinition bd): void&lt;br&gt;&lt;/p&gt;" style="verticalAlign=top;align=left;overflow=fill;fontSize=12;fontFamily=Helvetica;html=1;" parent="WIyWlLk6GJQsqaUBKTNV-1" vertex="1">
          <mxGeometry x="445" y="780" width="290" height="115" as="geometry" />
        </mxCell>
        <mxCell id="sI2XtZQbdFrjad-43Lmu-34" value="" style="endArrow=block;dashed=1;endFill=0;endSize=12;html=1;rounded=0;entryX=1;entryY=0.5;entryDx=0;entryDy=0;exitX=-0.002;exitY=0.365;exitDx=0;exitDy=0;exitPerimeter=0;" parent="WIyWlLk6GJQsqaUBKTNV-1" source="sI2XtZQbdFrjad-43Lmu-32" target="sI2XtZQbdFrjad-43Lmu-31" edge="1">
          <mxGeometry width="160" relative="1" as="geometry">
            <mxPoint x="270" y="750" as="sourcePoint" />
            <mxPoint x="430" y="750" as="targetPoint" />
          </mxGeometry>
        </mxCell>
        <mxCell id="sI2XtZQbdFrjad-43Lmu-35" value="Extends" style="endArrow=block;endSize=16;endFill=0;html=1;rounded=0;entryX=1;entryY=0.5;entryDx=0;entryDy=0;exitX=0;exitY=0.202;exitDx=0;exitDy=0;exitPerimeter=0;" parent="WIyWlLk6GJQsqaUBKTNV-1" target="sI2XtZQbdFrjad-43Lmu-24" edge="1">
          <mxGeometry width="160" relative="1" as="geometry">
            <mxPoint x="440" y="451.312" as="sourcePoint" />
            <mxPoint x="520" y="540" as="targetPoint" />
          </mxGeometry>
        </mxCell>
        <mxCell id="sI2XtZQbdFrjad-43Lmu-39" value="AbstractBeanFactory" style="swimlane;fontStyle=1;align=center;verticalAlign=top;childLayout=stackLayout;horizontal=1;startSize=26;horizontalStack=0;resizeParent=1;resizeParentMax=0;resizeLast=0;collapsible=1;marginBottom=0;fontColor=default;" parent="WIyWlLk6GJQsqaUBKTNV-1" vertex="1">
          <mxGeometry x="450" y="370" width="240" height="120" as="geometry" />
        </mxCell>
        <mxCell id="sI2XtZQbdFrjad-43Lmu-41" value="" style="line;strokeWidth=1;fillColor=none;align=left;verticalAlign=middle;spacingTop=-1;spacingLeft=3;spacingRight=3;rotatable=0;labelPosition=right;points=[];portConstraint=eastwest;strokeColor=inherit;fontColor=default;" parent="sI2XtZQbdFrjad-43Lmu-39" vertex="1">
          <mxGeometry y="26" width="240" height="8" as="geometry" />
        </mxCell>
        <mxCell id="sI2XtZQbdFrjad-43Lmu-42" value="+ getBeanDefinition(String beanName)&#xa;: BeanDefinition" style="text;strokeColor=none;fillColor=none;align=left;verticalAlign=top;spacingLeft=4;spacingRight=4;overflow=hidden;rotatable=0;points=[[0,0.5],[1,0.5]];portConstraint=eastwest;fontColor=default;" parent="sI2XtZQbdFrjad-43Lmu-39" vertex="1">
          <mxGeometry y="34" width="240" height="26" as="geometry" />
        </mxCell>
        <mxCell id="sI2XtZQbdFrjad-43Lmu-43" value="+ creatBean(String beanName, BeanDefinition bd): Obj" style="text;strokeColor=none;fillColor=none;align=left;verticalAlign=top;spacingLeft=4;spacingRight=4;overflow=hidden;rotatable=0;points=[[0,0.5],[1,0.5]];portConstraint=eastwest;fontColor=default;" parent="sI2XtZQbdFrjad-43Lmu-39" vertex="1">
          <mxGeometry y="60" width="240" height="26" as="geometry" />
        </mxCell>
        <mxCell id="sI2XtZQbdFrjad-43Lmu-44" value="+ creatBean(String beanName, BeanDefinition beanDefinition, Object[] args)&#xa;: Obj" style="text;strokeColor=none;fillColor=none;align=left;verticalAlign=top;spacingLeft=4;spacingRight=4;overflow=hidden;rotatable=0;points=[[0,0.5],[1,0.5]];portConstraint=eastwest;fontColor=#009900;" parent="sI2XtZQbdFrjad-43Lmu-39" vertex="1">
          <mxGeometry y="86" width="240" height="34" as="geometry" />
        </mxCell>
        <mxCell id="sI2XtZQbdFrjad-43Lmu-47" value="&lt;p style=&quot;margin:0px;margin-top:4px;text-align:center;&quot;&gt;&lt;i&gt;&amp;lt;&amp;lt;Interface&amp;gt;&amp;gt;&lt;/i&gt;&lt;br&gt;&lt;b&gt;InstantiationStrategy&lt;/b&gt;&lt;br&gt;&lt;/p&gt;&lt;p style=&quot;margin:0px;margin-left:4px;&quot;&gt;&lt;br&gt;&lt;/p&gt;&lt;hr size=&quot;1&quot;&gt;&lt;p style=&quot;margin:0px;margin-left:4px;&quot;&gt;+ instantiate(BeanDefinition beanDefinition,&amp;nbsp;&lt;/p&gt;&lt;p style=&quot;margin:0px;margin-left:4px;&quot;&gt;String beanName, Constructor ctor,&lt;/p&gt;&lt;p style=&quot;margin:0px;margin-left:4px;&quot;&gt;&amp;nbsp;Object[] args)ï¼šObject&lt;/p&gt;&lt;p style=&quot;margin:0px;margin-left:4px;&quot;&gt;&lt;br&gt;&lt;/p&gt;" style="verticalAlign=top;align=left;overflow=fill;fontSize=12;fontFamily=Helvetica;html=1;fontColor=#009900;" parent="WIyWlLk6GJQsqaUBKTNV-1" vertex="1">
          <mxGeometry x="830" y="520" width="190" height="90" as="geometry" />
        </mxCell>
        <mxCell id="sI2XtZQbdFrjad-43Lmu-48" value="SimpleInstantiationStrategy" style="swimlane;fontStyle=1;align=center;verticalAlign=top;childLayout=stackLayout;horizontal=1;startSize=26;horizontalStack=0;resizeParent=1;resizeParentMax=0;resizeLast=0;collapsible=1;marginBottom=0;fontColor=#009900;" parent="WIyWlLk6GJQsqaUBKTNV-1" vertex="1">
          <mxGeometry x="810" y="673" width="210" height="90" as="geometry" />
        </mxCell>
        <mxCell id="sI2XtZQbdFrjad-43Lmu-50" value="" style="line;strokeWidth=1;fillColor=none;align=left;verticalAlign=middle;spacingTop=-1;spacingLeft=3;spacingRight=3;rotatable=0;labelPosition=right;points=[];portConstraint=eastwest;strokeColor=inherit;fontColor=#009900;" parent="sI2XtZQbdFrjad-43Lmu-48" vertex="1">
          <mxGeometry y="26" width="210" height="8" as="geometry" />
        </mxCell>
        <mxCell id="sI2XtZQbdFrjad-43Lmu-51" value="+ instantiate(BeanDefinition beanDefinition, &#xa;String beanName, Constructor ctor,&#xa; Object[] args)ï¼šObject" style="text;strokeColor=none;fillColor=none;align=left;verticalAlign=top;spacingLeft=4;spacingRight=4;overflow=hidden;rotatable=0;points=[[0,0.5],[1,0.5]];portConstraint=eastwest;fontColor=#009900;" parent="sI2XtZQbdFrjad-43Lmu-48" vertex="1">
          <mxGeometry y="34" width="210" height="56" as="geometry" />
        </mxCell>
        <mxCell id="sI2XtZQbdFrjad-43Lmu-52" value="CglibSubclassingInstantiationStrategy" style="swimlane;fontStyle=1;align=center;verticalAlign=top;childLayout=stackLayout;horizontal=1;startSize=26;horizontalStack=0;resizeParent=1;resizeParentMax=0;resizeLast=0;collapsible=1;marginBottom=0;fontColor=#009900;" parent="WIyWlLk6GJQsqaUBKTNV-1" vertex="1">
          <mxGeometry x="1070" y="674.5" width="270" height="90" as="geometry" />
        </mxCell>
        <mxCell id="sI2XtZQbdFrjad-43Lmu-54" value="" style="line;strokeWidth=1;fillColor=none;align=left;verticalAlign=middle;spacingTop=-1;spacingLeft=3;spacingRight=3;rotatable=0;labelPosition=right;points=[];portConstraint=eastwest;strokeColor=inherit;fontColor=#009900;" parent="sI2XtZQbdFrjad-43Lmu-52" vertex="1">
          <mxGeometry y="26" width="270" height="8" as="geometry" />
        </mxCell>
        <mxCell id="sI2XtZQbdFrjad-43Lmu-55" value="+ instantiate(BeanDefinition beanDefinition, &#xa;String beanName, Constructor ctor,&#xa; Object[] args)ï¼šObject" style="text;strokeColor=none;fillColor=none;align=left;verticalAlign=top;spacingLeft=4;spacingRight=4;overflow=hidden;rotatable=0;points=[[0,0.5],[1,0.5]];portConstraint=eastwest;fontColor=#009900;" parent="sI2XtZQbdFrjad-43Lmu-52" vertex="1">
          <mxGeometry y="34" width="270" height="56" as="geometry" />
        </mxCell>
        <mxCell id="sI2XtZQbdFrjad-43Lmu-56" value="" style="endArrow=block;dashed=1;endFill=0;endSize=12;html=1;rounded=0;fontColor=#009900;exitX=0.442;exitY=0.006;exitDx=0;exitDy=0;exitPerimeter=0;entryX=0.5;entryY=1;entryDx=0;entryDy=0;" parent="WIyWlLk6GJQsqaUBKTNV-1" source="sI2XtZQbdFrjad-43Lmu-48" target="sI2XtZQbdFrjad-43Lmu-47" edge="1">
          <mxGeometry width="160" relative="1" as="geometry">
            <mxPoint x="950" y="640" as="sourcePoint" />
            <mxPoint x="1110" y="640" as="targetPoint" />
          </mxGeometry>
        </mxCell>
        <mxCell id="sI2XtZQbdFrjad-43Lmu-57" value="" style="endArrow=block;dashed=1;endFill=0;endSize=12;html=1;rounded=0;fontColor=#009900;exitX=0.442;exitY=0.006;exitDx=0;exitDy=0;exitPerimeter=0;entryX=0.996;entryY=0.43;entryDx=0;entryDy=0;entryPerimeter=0;" parent="WIyWlLk6GJQsqaUBKTNV-1" target="sI2XtZQbdFrjad-43Lmu-47" edge="1">
          <mxGeometry width="160" relative="1" as="geometry">
            <mxPoint x="1152.8600000000001" y="674.4999999999999" as="sourcePoint" />
            <mxPoint x="1147.1399999999999" y="611.14" as="targetPoint" />
          </mxGeometry>
        </mxCell>
        <mxCell id="sI2XtZQbdFrjad-43Lmu-63" value="AbstractAutowireCapableBeanFactory" style="swimlane;fontStyle=1;align=center;verticalAlign=top;childLayout=stackLayout;horizontal=1;startSize=26;horizontalStack=0;resizeParent=1;resizeParentMax=0;resizeLast=0;collapsible=1;marginBottom=0;fontColor=#000000;" parent="WIyWlLk6GJQsqaUBKTNV-1" vertex="1">
          <mxGeometry x="455" y="560" width="240" height="140" as="geometry" />
        </mxCell>
        <mxCell id="sI2XtZQbdFrjad-43Lmu-64" value="+ instantiationStrategy: InstantiationStrategy" style="text;strokeColor=none;fillColor=none;align=left;verticalAlign=top;spacingLeft=4;spacingRight=4;overflow=hidden;rotatable=0;points=[[0,0.5],[1,0.5]];portConstraint=eastwest;fontColor=#000000;" parent="sI2XtZQbdFrjad-43Lmu-63" vertex="1">
          <mxGeometry y="26" width="240" height="26" as="geometry" />
        </mxCell>
        <mxCell id="sI2XtZQbdFrjad-43Lmu-66" value="+ creatBean(String beanName, BeanDefinition bd): Objï¼ˆå®žçŽ°" style="text;strokeColor=none;fillColor=none;align=left;verticalAlign=top;spacingLeft=4;spacingRight=4;overflow=hidden;rotatable=0;points=[[0,0.5],[1,0.5]];portConstraint=eastwest;fontColor=#000000;" parent="sI2XtZQbdFrjad-43Lmu-63" vertex="1">
          <mxGeometry y="52" width="240" height="88" as="geometry" />
        </mxCell>
        <mxCell id="sI2XtZQbdFrjad-43Lmu-69" value="" style="endArrow=diamondThin;endFill=1;endSize=24;html=1;rounded=0;fontColor=#000000;exitX=-0.021;exitY=0.593;exitDx=0;exitDy=0;exitPerimeter=0;entryX=1;entryY=0.5;entryDx=0;entryDy=0;" parent="WIyWlLk6GJQsqaUBKTNV-1" source="sI2XtZQbdFrjad-43Lmu-47" edge="1" target="sI2XtZQbdFrjad-43Lmu-64">
          <mxGeometry width="160" relative="1" as="geometry">
            <mxPoint x="460" y="620" as="sourcePoint" />
            <mxPoint x="700" y="570" as="targetPoint" />
          </mxGeometry>
        </mxCell>
        <mxCell id="sI2XtZQbdFrjad-43Lmu-68" value="+ creatBean(String beanName, BeanDefinition bd,&#xa; Obj[] args): Objï¼ˆå®žçŽ°ï¼‰&#xa;" style="text;strokeColor=none;fillColor=none;align=left;verticalAlign=top;spacingLeft=4;spacingRight=4;overflow=hidden;rotatable=0;points=[[0,0.5],[1,0.5]];portConstraint=eastwest;fontColor=#009900;" parent="WIyWlLk6GJQsqaUBKTNV-1" vertex="1">
          <mxGeometry x="450" y="630" width="430" height="30" as="geometry" />
        </mxCell>
        <mxCell id="LQUSDKsi27UiTHR2LXb1-1" value="Extends" style="endArrow=block;endSize=16;endFill=0;html=1;rounded=0;fontColor=#009900;exitX=0.5;exitY=0;exitDx=0;exitDy=0;" edge="1" parent="WIyWlLk6GJQsqaUBKTNV-1" source="sI2XtZQbdFrjad-43Lmu-32">
          <mxGeometry width="160" relative="1" as="geometry">
            <mxPoint x="650" y="590" as="sourcePoint" />
            <mxPoint x="550" y="700" as="targetPoint" />
          </mxGeometry>
        </mxCell>
      </root>
    </mxGraphModel>
  </diagram>
</mxfile>